<?xml version="1.0" standalone="no"?><!DOCTYPE svg PUBLIC "-//W3C//DTD SVG 1.1//EN" "http://www.w3.org/Graphics/SVG/1.1/DTD/svg11.dtd"><svg t="1577345100411" class="icon" viewBox="0 0 1036 1024" version="1.1" xmlns="http://www.w3.org/2000/svg" p-id="1333" xmlns:xlink="http://www.w3.org/1999/xlink" width="129.5" height="128"><defs><style type="text/css"></style></defs><path d="M921.6 947.2h-102.4v19.2c0 25.6-25.6 51.2-51.2 51.2s-51.2-25.6-51.2-51.2v-19.2H307.2v19.2c0 32-19.2 57.6-51.2 57.6s-51.2-25.6-51.2-57.6v-19.2H102.4C64 947.2 0 876.8 0 832V416c0-38.4 25.6-76.8 70.4-76.8h70.4c38.4 0 70.4 38.4 70.4 76.8v300.8h614.4V416c0-38.4 25.6-76.8 70.4-76.8h70.4c38.4 0 70.4 38.4 70.4 76.8V832c-12.8 44.8-76.8 115.2-115.2 115.2z" fill="#757575" p-id="1334"></path><path d="M851.2 262.4c-57.6 6.4-102.4 51.2-102.4 115.2V640H275.2V377.6c0-57.6-44.8-108.8-102.4-115.2h-32V115.2C140.8 57.6 185.6 6.4 243.2 0h544c57.6 6.4 102.4 51.2 102.4 115.2v153.6c-12.8-6.4-25.6-6.4-38.4-6.4z" fill="#757575" p-id="1335"></path></svg>